<?xml version="1.0" encoding="utf-8"?>
<!-- Generator: Adobe Illustrator 19.0.0, SVG Export Plug-In . SVG Version: 6.00 Build 0)  -->
<svg version="1.1" id="Layer_1" xmlns="http://www.w3.org/2000/svg" xmlns:xlink="http://www.w3.org/1999/xlink" x="0px" y="0px"
	 viewBox="125 303.4 862.3 186.6" style="enable-background:new 125 303.4 862.3 186.6;" xml:space="preserve">
<style type="text/css">
	.st0{fill:none;}
	.st1{fill:#FF6600;}
	.st2{fill:#14477C;}
	.st3{fill:#19467F;}
	.st4{fill:#15416E;}
	.st5{fill-rule:evenodd;clip-rule:evenodd;fill:#15416E;}
</style>
<g>
	<g>
		<path class="st0" d="M279.5,376.4c-0.2-0.1-0.4-0.1-0.7-0.2c-2.2,3.9-6.1,5.9-9.9,7.6c-10.2,4.5-20.9,7.3-31.7,9.5
			c-16.5,3.3-33.3,5.1-50.1,5.5c-3.1,0.1-6.1-0.6-8.9-1.8c-2.3-1.1-4.4-2.5-5.5-4.9c-7.5-16.9-15.1-33.8-22.3-50.9
			c-0.5-1.2-0.5-2.4-1.3-3.4c-0.9,0.3-0.8,1-0.9,1.4c-1.1,3.9-2.1,7.9-3.5,11.7c-3.2,9.3-7,18.4-9.3,28c-0.4,1.6-0.4,3.3,0.1,4.8
			c1.2,3.3,2.6,6.4,3.8,9.6c7.4,18,14.6,35.9,22,53.9c1.2,2.8,1.7,6,4.1,8.1c4.2,3.7,9.2,3.9,14.4,3c16.7-3.3,33.4-6.6,50.2-10
			c18.8-3.8,37.7-7.7,56.5-11.5c3-0.6,4-1.8,4-4.8c0-1.2-0.3-2.3-0.5-3.5c-2.8-13.6-5.7-27.4-8.5-41
			C281.1,383.7,280.2,380.1,279.5,376.4z"/>
		<path class="st1" d="M279.5,376.4c0.8,3.7,1.6,7.3,2.4,11c2.9,13.6,5.7,27.4,8.5,41c0.2,1.2,0.5,2.3,0.5,3.5c0,3-1.1,4.2-4,4.8
			c-18.8,3.8-37.7,7.8-56.5,11.5c-16.7,3.4-33.4,6.7-50.2,10c-5.2,1-10.2,0.8-14.4-3c-2.4-2.1-3-5.3-4.1-8.1
			c-7.4-18-14.6-35.9-22-53.9c-1.3-3.2-2.8-6.3-3.8-9.6c-0.6-1.6-0.6-3.2-0.1-4.8c2.3-9.6,6.2-18.6,9.3-28c1.3-3.8,2.4-7.8,3.5-11.7
			c0.1-0.5,0-1.2,0.9-1.4c0.4,1.2,0.9,2.2,1.3,3.4c7.2,17.1,14.8,34,22.3,50.9c1.1,2.4,3.2,3.8,5.5,4.9c2.8,1.2,5.9,1.9,8.9,1.8
			c16.8-0.4,33.5-2.2,50.1-5.5c10.9-2.1,21.5-5,31.7-9.5c3.8-1.7,7.7-3.7,9.9-7.6C279.1,376.3,279.3,376.3,279.5,376.4z"/>
		<path class="st2" d="M215.7,330.7c12.6,0.2,24.8,2.3,35.8,8.9c3.3,1.9,6.1,4.4,8.3,7.5c3.6,5,4,10.5,1.6,16.1
			c-2.9,6.7-8.2,11.3-14.2,14.9c-10.9,6.5-22.8,9.6-35.4,9.4c-10.4-0.2-20.3-2.4-28.8-8.5c-6.5-4.7-11.2-10.7-11.7-19.1
			c-0.5-7.7,3.1-13.6,8.7-18.4c6.8-5.8,15.1-8.5,23.7-9.9C207.7,331,211.7,330.6,215.7,330.7z M192.5,362.4c-1.3-4-2.5-7.9-3-12
			c-4.2,0-8.5,0-12.7,0c-2.4,5.1-2.8,10.1-0.7,15.4C181.6,364.6,186.9,363.5,192.5,362.4z M193.6,364.4c-5.6,1.2-11,2.3-16.6,3.6
			c3.4,5.8,8.1,9.6,13.8,12.5c3.2-1.8,6.5-3.4,10.2-4.7C198,372.3,195.6,368.7,193.6,364.4z M215.6,359.9
			c-6.2,1.3-12.3,2.6-18.7,3.9c1.8,4.1,4.3,7.5,7.2,10.5c5.5-1.6,10.9-3.3,16.3-4.9C218.7,366.1,217.6,362.9,215.6,359.9z
			 M195.8,361.6c6.2-1.2,12.5-2.5,19-3.8c-1.6-3.4-3.2-6.5-4.7-9.8c-5.8,1.3-11.4,1.3-17.2,2.2C193.4,354.3,194.4,357.9,195.8,361.6
			z M224,368.7c5.7-1.2,11.3-1.9,17.2-2.6c-0.4-4-1.3-7.5-3.3-10.9c-6.2,1.2-12.4,2.6-18.7,3.8C221.1,362.4,221.9,365.8,224,368.7z
			 M213.7,347.5c1.6,3.4,3.1,6.4,4.6,9.6c6.2-1.2,12.5-2.6,19-3.9c-2.2-3.9-4.6-7.3-7.6-10C224.4,345,219.2,346.2,213.7,347.5z
			 M241.6,354.4c1.9,3.8,2.5,7.6,3.4,11.3c2.1-0.2,3.9-0.4,5.9-0.5s3.9,0,5.8,0c3.2-4.1,3.7-9.8,1.5-14.2
			C252.7,352.2,247.4,353.3,241.6,354.4z M243.6,338.2c-3.7,1.4-6.9,2.8-10.5,4.1c2.9,3.2,5.5,6.4,7.5,10.3
			c5.6-1.2,11.1-2.3,16.6-3.5C253.9,343.5,248.7,340.9,243.6,338.2z M206,376.4c4.1,4.4,4.4,5,10,8.7c0,0,7.1,0,11-1.5
			c-1.9-3.9-3.7-7.8-5.7-11.8C216,373,211,374.2,206,376.4z M192.9,347.7c5.7,0,11-0.5,16.4-1.7c-2-4.2-3.8-8.2-5.7-12.2
			c-3.5,0.8-6.8,1.6-10,3C193.1,340.4,192.4,343.9,192.9,347.7z M241.5,368.3c-5.8,0.4-11.1,1.3-16.7,2.6c1.9,4,3.8,8,5.8,11.9
			c3.6-0.9,6.8-2,9.9-3.8C241.1,375.6,241.7,372.2,241.5,368.3z M212.9,345.4c5.2-1,10-2.5,15.3-3.9c-3.4-3.7-6.9-6.2-10.5-8.9
			c-3.4-0.1-6.8,0.3-10.5,0.9C208.7,337.7,210.8,341.4,212.9,345.4z M178.5,347.9c3.7,0.5,7.1,0.3,11,0.3c-0.4-3.6-0.2-6.2,0.1-9.3
			C185,340.7,181.5,343.5,178.5,347.9z M202.6,377.7c-2.9,1.2-5.8,2.2-8.6,4.1c5.5,2.5,10.9,3.1,17,3.6
			C207.9,382.6,205.3,380.2,202.6,377.7z M245.2,368c-0.3,3-0.5,5.8-0.8,8.8c4.6-2.3,8.1-5.3,11-9.4
			C251.8,367.2,248.6,367.8,245.2,368z M231.2,340.4c1.4-0.5,2.8-0.9,4-1.3c1.5-0.6,3-1.2,4.6-1.9c-3.2-2-12.4-4-16.5-3.7
			C226.1,335.8,228.8,337.9,231.2,340.4z"/>
	</g>
	<g>
		<g>
			<g>
				<path class="st3" d="M328.6,458.3v-14.9l-14.6-19h6.4l11.4,15.2l11.4-15.2h5.4l-14.6,19v14.9H328.6z"/>
				<path class="st3" d="M371.7,446.7c0,1.8-0.4,3.6-1.1,5.1c-0.8,1.5-1.7,2.8-3,3.9c-1.2,1.1-2.8,1.9-4.5,2.5
					c-1.7,0.6-3.7,0.9-5.7,0.9c-1.9,0-3.7-0.3-5.5-1c-1.7-0.7-3.2-1.5-4.4-2.7c-1.2-1.2-2.2-2.5-3-4c-0.7-1.5-1.1-3.3-1.1-5
					c0-1.8,0.4-3.6,1.2-5.1c0.8-1.5,1.7-2.9,3-3.9c1.2-1.2,2.8-2,4.4-2.6c1.7-0.6,3.6-1,5.5-1c2.1,0,3.9,0.3,5.7,1
					c1.7,0.7,3.2,1.5,4.4,2.6c1.2,1.2,2.2,2.5,2.9,4C371.5,443,371.7,444.8,371.7,446.7z M366.8,446.5c0-1.3-0.2-2.6-0.7-3.7
					s-1.1-2-1.9-2.8c-0.8-0.8-1.8-1.3-3-1.7c-1.2-0.4-2.4-0.6-3.7-0.6s-2.5,0.2-3.7,0.6c-1.2,0.4-2.1,1-2.9,1.7
					c-0.9,0.8-1.4,1.6-1.9,2.8c-0.5,1.1-0.7,2.3-0.7,3.6s0.2,2.5,0.7,3.6c0.4,1.2,1.1,2.1,1.8,2.9s1.7,1.4,2.9,1.9
					c1.2,0.5,2.4,0.7,3.7,0.7s2.7-0.2,3.8-0.7c1.2-0.4,2.1-1.1,3-1.8c0.8-0.8,1.4-1.7,1.8-2.8C366.6,449,366.8,447.8,366.8,446.5z"
					/>
				<path class="st3" d="M395.9,458.3v-3.7c-0.9,1.2-2.1,2.3-3.7,3.2c-1.6,0.9-3.7,1.2-6.1,1.2c-3.7,0-6.3-0.9-8-2.6
					c-1.7-1.7-2.5-4.1-2.5-7.3v-14.6h4.9v14.3c0,2.4,0.7,4,1.9,5.1c1.2,1,3.1,1.4,5.3,1.4c1.2,0,2.1-0.1,3.1-0.4
					c0.9-0.3,1.6-0.7,2.3-1.2c0.7-0.5,1.2-1.1,1.7-1.7c0.5-0.7,0.9-1.3,1.2-2.1v-15.4h4.9v23.6L395.9,458.3L395.9,458.3z"/>
				<path class="st3" d="M406.2,458.3v-23.6h4.8v3.8c0.8-1,1.6-1.7,2.5-2.3s1.7-1.1,2.6-1.3c0.9-0.3,1.6-0.6,2.4-0.7
					s1.4-0.2,1.9-0.2c1,0,1.8,0.1,2.5,0.3c0.7,0.2,1.2,0.5,1.7,0.9v4.3c-0.6-0.6-1.3-1-2.2-1.2c-0.9-0.3-1.8-0.4-2.9-0.4
					c-1.7,0-3.4,0.4-4.9,1.2c-1.5,0.8-2.7,2-3.5,3.7v15.7L406.2,458.3L406.2,458.3z"/>
				<path class="st3" d="M470.2,458.3l-12.9-17.2l-8.9,6.9v10.2h-5.6v-33.9h5.6v17.8l21.8-17.8h7.8L461,437.9l15.4,20.3L470.2,458.3
					L470.2,458.3z"/>
				<path class="st3" d="M481.1,446.9c0.1,1.2,0.3,2.5,0.8,3.6c0.5,1.1,1.2,2,1.9,2.7c0.8,0.8,1.7,1.3,2.9,1.7
					c1.2,0.4,2.3,0.6,3.7,0.6c2,0,3.8-0.5,5.3-1.4c1.4-1,2.5-2.3,3-3.9h4.2c-0.3,1.3-0.8,2.6-1.6,3.7c-0.8,1.2-1.7,2-2.9,2.8
					c-1.2,0.8-2.5,1.3-3.9,1.8c-1.4,0.4-3,0.7-4.6,0.7c-2,0-3.8-0.4-5.5-1c-1.6-0.7-3.1-1.5-4.2-2.8c-1.2-1.2-2.1-2.5-2.7-4
					c-0.7-1.5-1-3.3-1-5c0-1.9,0.4-3.7,1.1-5.2c0.8-1.5,1.7-2.9,3-3.9c1.2-1.1,2.7-1.9,4.4-2.5c1.6-0.6,3.5-0.9,5.4-0.9
					c1.9,0,3.7,0.3,5.3,0.9c1.6,0.6,3.1,1.3,4.2,2.4c1.2,1.1,2.1,2.3,2.9,3.8c0.7,1.5,1.1,3.2,1.1,5c0,0.2,0,0.4,0,0.6s0,0.4,0,0.6
					h-22.6V446.9z M498.8,444.8c0-1.2-0.3-2.3-0.8-3.3c-0.5-1-1.1-1.7-1.8-2.4s-1.6-1.2-2.7-1.5c-1.1-0.4-2.1-0.6-3.3-0.6
					c-1.2,0-2.4,0.2-3.5,0.6c-1.1,0.4-2,0.9-2.8,1.5s-1.4,1.4-1.9,2.4c-0.5,1-0.8,2-0.9,3.2L498.8,444.8L498.8,444.8z"/>
				<path class="st3" d="M505.4,468.3v-3.7h5.4c0.7,0,1.4-0.3,2.1-0.8c0.7-0.5,1.4-1.5,2.1-3l1.2-2.3l-12.5-23.8h5.2l9.8,19.3
					l9-19.3h4.9l-13.2,27.2c-0.4,0.9-0.9,1.7-1.4,2.5c-0.5,0.8-1.1,1.4-1.7,2c-0.7,0.6-1.3,1.1-2.1,1.3c-0.8,0.4-1.6,0.5-2.7,0.5
					L505.4,468.3L505.4,468.3z"/>
				<path class="st3" d="M560.1,458.3V429h-12v-4.6h29.5v4.6h-12v29.3H560.1z"/>
				<path class="st3" d="M603.8,446.7c0,1.8-0.4,3.6-1.1,5.1c-0.8,1.5-1.7,2.8-3,3.9c-1.2,1.1-2.8,1.9-4.5,2.5s-3.7,0.9-5.7,0.9
					c-1.9,0-3.7-0.3-5.5-1c-1.7-0.7-3.2-1.5-4.4-2.7c-1.2-1.2-2.2-2.5-3-4c-0.7-1.5-1.1-3.3-1.1-5c0-1.8,0.4-3.6,1.2-5.1
					c0.8-1.5,1.7-2.9,3-3.9c1.2-1.2,2.8-2,4.4-2.6c1.7-0.6,3.6-1,5.5-1c2.1,0,3.9,0.3,5.7,1s3.2,1.5,4.4,2.6c1.2,1.2,2.2,2.5,2.9,4
					C603.4,443,603.8,444.8,603.8,446.7z M598.9,446.5c0-1.3-0.2-2.6-0.7-3.7c-0.5-1.2-1.1-2-1.9-2.8c-0.8-0.8-1.8-1.3-3-1.7
					c-1.2-0.4-2.4-0.6-3.7-0.6s-2.5,0.2-3.7,0.6c-1.2,0.4-2.1,1-2.9,1.7c-0.8,0.8-1.4,1.6-1.9,2.8c-0.5,1.1-0.7,2.3-0.7,3.6
					s0.2,2.5,0.7,3.6c0.4,1.2,1.1,2.1,1.8,2.9s1.7,1.4,2.9,1.9c1.2,0.5,2.4,0.7,3.7,0.7s2.7-0.2,3.8-0.7c1.2-0.4,2.1-1.1,3-1.8
					c0.8-0.8,1.4-1.7,1.8-2.8C598.7,449,598.9,447.8,598.9,446.5z"/>
				<path class="st3" d="M652.4,458.2v-6.5c-0.5,1-1.2,1.8-1.9,2.7c-0.9,0.9-1.8,1.6-3.1,2.3c-1.2,0.7-2.5,1.2-4,1.6
					c-1.5,0.4-3.1,0.7-4.9,0.7c-2.8,0-5.3-0.5-7.5-1.4c-2.2-1-4-2.3-5.6-3.9s-2.7-3.6-3.6-5.8c-0.8-2.2-1.2-4.4-1.2-6.8
					c0-2.7,0.5-5.1,1.4-7.3s2.2-4,3.8-5.6c1.6-1.5,3.6-2.8,5.8-3.7s4.5-1.3,7-1.3c2.2,0,4.3,0.3,6.3,0.8s3.7,1.2,5.3,2.3
					c1.5,1.1,2.9,2.4,3.9,4c1.1,1.6,1.8,3.6,2.2,5.9h-5c-0.8-2.9-2.3-5-4.5-6.4c-2.2-1.3-4.8-2-7.9-2c-1.7,0-3.5,0.3-5,1
					c-1.5,0.7-2.9,1.5-4,2.7s-2,2.6-2.7,4.2c-0.7,1.6-1,3.5-1,5.5c0,1.9,0.3,3.7,0.9,5.3c0.6,1.6,1.3,3.1,2.5,4.3
					c1.1,1.2,2.4,2.2,4,3c1.5,0.8,3.4,1.1,5.4,1.1c1.7,0,3.4-0.3,4.8-0.8c1.4-0.5,2.7-1.2,3.7-2.1c1.1-0.9,1.8-1.9,2.4-3.2
					c0.6-1.2,1-2.5,1.1-3.9h-12.5v-4.3h18.8V458h-5V458.2z"/>
				<path class="st3" d="M662.8,458.3v-34.9h4.9v34.9H662.8z"/>
				<path class="st3" d="M700.1,446.7c0,1.8-0.4,3.6-1.1,5.1c-0.8,1.5-1.7,2.8-3,3.9c-1.2,1.1-2.8,1.9-4.5,2.5s-3.7,0.9-5.7,0.9
					c-1.9,0-3.7-0.3-5.5-1c-1.7-0.7-3.2-1.5-4.4-2.7c-1.2-1.2-2.2-2.5-3-4c-0.7-1.5-1.1-3.3-1.1-5c0-1.8,0.4-3.6,1.2-5.1
					c0.8-1.5,1.7-2.9,3-3.9c1.2-1.2,2.8-2,4.4-2.6c1.7-0.6,3.6-1,5.5-1c2.1,0,3.9,0.3,5.7,1c1.7,0.7,3.2,1.5,4.4,2.6
					c1.2,1.2,2.2,2.5,2.9,4C699.7,443,700.1,444.8,700.1,446.7z M695.2,446.5c0-1.3-0.2-2.6-0.7-3.7s-1.1-2-1.9-2.8
					c-0.9-0.8-1.8-1.3-3-1.7c-1.2-0.4-2.4-0.6-3.7-0.6s-2.5,0.2-3.7,0.6c-1.2,0.4-2.1,1-2.9,1.7c-0.9,0.8-1.4,1.6-1.9,2.8
					c-0.5,1.1-0.7,2.3-0.7,3.6s0.2,2.5,0.7,3.6c0.4,1.2,1.1,2.1,1.8,2.9s1.7,1.4,2.9,1.9c1.2,0.5,2.4,0.7,3.7,0.7s2.7-0.2,3.8-0.7
					c1.2-0.4,2.1-1.1,3-1.8c0.8-0.8,1.4-1.7,1.8-2.8C695,449,695.2,447.8,695.2,446.5z"/>
				<path class="st3" d="M704.2,458.3v-34.9h4.9v14.5c1.1-1.5,2.4-2.6,3.9-3.2c1.5-0.6,3.3-0.9,5.1-0.9c1.6,0,3.2,0.3,4.5,1
					c1.3,0.6,2.6,1.4,3.6,2.5c1,1.1,1.7,2.3,2.3,3.8c0.6,1.4,0.8,3.1,0.8,4.8c0,1.9-0.3,3.7-0.9,5.4c-0.6,1.6-1.4,3.1-2.5,4.2
					c-1.1,1.2-2.3,2.1-3.7,2.8c-1.4,0.7-3,1-4.7,1c-2.2,0-4.1-0.4-5.8-1.2c-1.6-0.8-2.8-1.8-3.7-3.2l-0.3,3.5h-3.6V458.3z
					 M716.9,437.4c-1.8,0-3.4,0.3-4.6,1c-1.2,0.7-2.4,1.8-3.2,3.5v8.9c0.5,1.4,1.4,2.6,2.7,3.5c1.2,0.9,3,1.3,5,1.3
					c1.2,0,2.3-0.3,3.3-0.8c1-0.5,1.7-1.2,2.4-2c0.7-0.9,1.2-1.8,1.4-3c0.4-1.2,0.5-2.4,0.5-3.7c0-1.2-0.2-2.4-0.5-3.5
					c-0.3-1.1-0.8-2-1.3-2.8c-0.6-0.8-1.4-1.4-2.3-1.8C719.3,437.6,718.2,437.4,716.9,437.4z"/>
				<path class="st3" d="M760.2,458c-0.5,0.4-1.1,0.7-1.7,0.9c-0.6,0.2-1.2,0.3-1.9,0.3c-1.5,0-2.8-0.4-3.7-1.2
					c-0.9-0.8-1.4-1.9-1.6-3.3c-1.2,1.6-2.9,2.8-4.7,3.5c-1.8,0.7-3.8,1-5.9,1c-2.6,0-4.6-0.6-6.1-1.8c-1.4-1.2-2.1-3.1-2.1-5.5
					c0-1.7,0.4-3.2,1.2-4.3c0.8-1.2,1.8-2.1,3.1-2.8c1.2-0.7,2.7-1.2,4.2-1.5c1.5-0.3,3.1-0.4,4.5-0.4c1,0,1.9,0,2.9,0.1
					c1,0.1,1.7,0.2,2.5,0.3v-0.4c0-1.1-0.1-2-0.3-2.7c-0.2-0.7-0.6-1.2-1.2-1.7c-0.5-0.4-1.2-0.7-2-0.9c-0.9-0.2-1.9-0.2-3.2-0.2
					c-1,0-1.8,0-2.6,0.1c-0.8,0.1-1.4,0.3-2.1,0.7c-0.6,0.3-1.1,0.8-1.4,1.4s-0.5,1.4-0.5,2.5h-4.4c0-1.7,0.3-3.2,0.9-4.2
					c0.5-1.1,1.2-1.9,2.2-2.5c1-0.6,2-1,3.4-1.2s2.8-0.3,4.3-0.3c2,0,3.7,0.1,5.2,0.4c1.4,0.3,2.7,0.8,3.7,1.5
					c1,0.8,1.7,1.8,2.1,3.1c0.5,1.3,0.7,3,0.7,5v7.4c0,0.4,0,0.9,0.1,1.3c0,0.5,0.2,1,0.4,1.3c0.2,0.4,0.5,0.8,0.8,1.1
					c0.4,0.3,0.8,0.4,1.3,0.4c0.4,0,0.8-0.1,1.2-0.2c0.3-0.2,0.6-0.4,1-0.6L760.2,458L760.2,458z M750.7,445.8
					c-0.7-0.1-1.5-0.3-2.4-0.4c-0.9-0.1-1.8-0.2-2.9-0.2c-0.9,0-1.8,0.1-2.9,0.3c-1,0.2-1.9,0.5-2.8,1s-1.5,1.1-2.1,1.8
					c-0.6,0.8-0.9,1.7-0.9,2.9c0,0.9,0.2,1.5,0.5,2c0.3,0.5,0.8,1,1.2,1.2s1.2,0.6,1.8,0.7s1.4,0.2,2.3,0.2s1.7-0.1,2.6-0.3
					c0.9-0.2,1.6-0.5,2.4-0.9c0.8-0.4,1.3-0.9,1.9-1.3c0.6-0.5,1-1.1,1.2-1.6V445.8z"/>
				<path class="st3" d="M763.1,458.3v-34.9h4.9v34.9H763.1z"/>
				<path class="st3" d="M797.7,458.3V429h-12v-4.6h29.5v4.6h-11.9v29.3H797.7z"/>
				<path class="st3" d="M816.3,458.3v-23.6h4.8v3.8c0.8-1,1.6-1.7,2.5-2.3c0.9-0.6,1.7-1.1,2.6-1.3s1.6-0.6,2.4-0.7
					c0.8-0.1,1.4-0.2,1.9-0.2c1,0,1.8,0.1,2.5,0.3c0.7,0.2,1.2,0.5,1.7,0.9v4.3c-0.6-0.6-1.3-1-2.2-1.2c-0.9-0.3-1.8-0.4-2.9-0.4
					c-1.7,0-3.4,0.4-4.9,1.2c-1.5,0.8-2.7,2-3.5,3.7v15.7L816.3,458.3L816.3,458.3z"/>
				<path class="st3" d="M865.1,458c-0.5,0.4-1.1,0.7-1.7,0.9c-0.6,0.2-1.2,0.3-1.9,0.3c-1.5,0-2.8-0.4-3.7-1.2
					c-0.9-0.8-1.4-1.9-1.6-3.3c-1.2,1.6-2.9,2.8-4.7,3.5c-1.8,0.7-3.8,1-5.9,1c-2.6,0-4.6-0.6-6.1-1.8c-1.4-1.2-2.1-3.1-2.1-5.5
					c0-1.7,0.4-3.2,1.2-4.3c0.8-1.2,1.8-2.1,3.1-2.8c1.2-0.7,2.7-1.2,4.2-1.5c1.5-0.3,3.1-0.4,4.5-0.4c1,0,1.9,0,2.9,0.1
					c1,0.1,1.7,0.2,2.5,0.3v-0.4c0-1.1-0.1-2-0.3-2.7c-0.2-0.7-0.6-1.2-1.2-1.7c-0.5-0.4-1.2-0.7-2-0.9c-0.9-0.2-1.9-0.2-3.2-0.2
					c-1,0-1.8,0-2.6,0.1c-0.8,0.1-1.4,0.3-2.1,0.7c-0.6,0.3-1.1,0.8-1.4,1.4s-0.5,1.4-0.5,2.5H838c0-1.7,0.3-3.2,0.9-4.2
					c0.5-1.1,1.2-1.9,2.2-2.5c1-0.6,2-1,3.4-1.2s2.8-0.3,4.3-0.3c2,0,3.7,0.1,5.2,0.4c1.4,0.3,2.7,0.8,3.7,1.5
					c1,0.8,1.7,1.8,2.1,3.1c0.5,1.3,0.7,3,0.7,5v7.4c0,0.4,0,0.9,0.1,1.3c0,0.5,0.2,1,0.4,1.3c0.2,0.4,0.5,0.8,0.8,1.1
					c0.4,0.3,0.8,0.4,1.3,0.4c0.4,0,0.8-0.1,1.2-0.2c0.3-0.2,0.6-0.4,1-0.6L865.1,458L865.1,458z M855.8,445.8
					c-0.7-0.1-1.5-0.3-2.4-0.4c-0.9-0.1-1.8-0.2-2.9-0.2c-0.9,0-1.8,0.1-2.9,0.3c-1,0.2-1.9,0.5-2.8,1s-1.5,1.1-2.1,1.8
					c-0.6,0.8-0.9,1.7-0.9,2.9c0,0.9,0.2,1.5,0.5,2c0.3,0.5,0.8,1,1.2,1.2s1.2,0.6,1.8,0.7c0.7,0.1,1.4,0.2,2.3,0.2s1.7-0.1,2.6-0.3
					c0.9-0.2,1.6-0.5,2.4-0.9c0.8-0.4,1.3-0.9,1.9-1.3c0.6-0.5,1-1.1,1.2-1.6V445.8z"/>
				<path class="st3" d="M887.6,458.3v-3.5c-0.8,1.3-2,2.4-3.6,3.2c-1.6,0.8-3.6,1.2-6,1.2c-1.5,0-3-0.3-4.3-1
					c-1.3-0.7-2.5-1.5-3.5-2.7c-1-1.2-1.7-2.5-2.4-4c-0.6-1.5-0.9-3.2-0.9-5c0-2,0.3-3.8,0.8-5.4c0.6-1.5,1.3-2.9,2.3-3.9
					c1-1.1,2.2-1.9,3.6-2.4c1.3-0.6,2.9-0.9,4.5-0.9c1.9,0,3.6,0.3,5.1,0.9s2.8,1.6,3.9,3.2v-14.5h4.9v34.9L887.6,458.3L887.6,458.3
					z M879.4,437.4c-1.2,0-2.4,0.2-3.3,0.7c-1,0.5-1.7,1.1-2.3,1.8s-1.1,1.7-1.3,2.8c-0.3,1.1-0.5,2.2-0.5,3.5
					c0,1.3,0.2,2.5,0.5,3.7c0.4,1.2,0.9,2.1,1.4,3c0.7,0.9,1.4,1.5,2.4,2c1,0.5,2,0.8,3.3,0.8c2,0,3.7-0.5,5-1.3
					c1.2-0.9,2.2-2,2.7-3.5v-8.9c-0.9-1.6-1.9-2.8-3.2-3.5C882.7,437.7,881.2,437.4,879.4,437.4z"/>
				<path class="st3" d="M900.9,446.9c0.1,1.2,0.3,2.5,0.8,3.6c0.5,1.1,1.2,2,1.9,2.7c0.8,0.8,1.7,1.3,2.9,1.7
					c1.2,0.4,2.3,0.6,3.7,0.6c2,0,3.8-0.5,5.3-1.4c1.4-1,2.5-2.3,3-3.9h4.2c-0.3,1.3-0.8,2.6-1.6,3.7c-0.8,1.2-1.7,2-2.9,2.8
					c-1.2,0.8-2.5,1.3-3.9,1.8c-1.4,0.4-3,0.7-4.6,0.7c-2,0-3.8-0.4-5.5-1c-1.6-0.7-3.1-1.5-4.2-2.8c-1.2-1.2-2.1-2.5-2.7-4
					c-0.7-1.5-1-3.3-1-5c0-1.9,0.4-3.7,1.1-5.2c0.8-1.5,1.7-2.9,3-3.9c1.2-1.1,2.7-1.9,4.4-2.5c1.6-0.6,3.5-0.9,5.5-0.9
					c1.9,0,3.7,0.3,5.3,0.9c1.6,0.6,3.1,1.3,4.2,2.4c1.2,1.1,2.1,2.3,2.9,3.8c0.7,1.5,1.1,3.2,1.1,5c0,0.2,0,0.4,0,0.6s0,0.4,0,0.6
					h-22.7V446.9z M918.6,444.8c0-1.2-0.3-2.3-0.8-3.3s-1.1-1.7-1.8-2.4s-1.6-1.2-2.7-1.5c-1.1-0.4-2.1-0.6-3.3-0.6
					c-1.2,0-2.4,0.2-3.5,0.6c-1.1,0.4-2,0.9-2.8,1.5s-1.4,1.4-1.9,2.4s-0.8,2-0.9,3.2L918.6,444.8L918.6,444.8z"/>
			</g>
		</g>
		<g>
			<path class="st4" d="M334.3,346.1v53.9c0,1.1,0.3,1.9,0.8,2.4c0.5,0.6,1.3,1,2.6,1.3v1.6h-22.2v-1.6c1.2-0.4,2.1-0.8,2.6-1.3
				c0.5-0.6,0.8-1.3,0.8-2.4v-53.9h-22.1c-1.1,0-1.8,0.2-2.4,0.7s-1,1.3-1.3,2.6h-1.6V331h1.6c0.4,1.2,0.9,2.1,1.3,2.6
				c0.6,0.5,1.3,0.7,2.4,0.7h59.7c1.1,0,1.9-0.2,2.5-0.7s1-1.3,1.3-2.6h1.6v18.5h-1.6c-0.4-1.2-0.8-2.1-1.3-2.6s-1.3-0.7-2.5-0.7
				L334.3,346.1L334.3,346.1z"/>
			<path class="st4" d="M387.7,376.5v23.6c0,1.1,0.3,1.8,0.8,2.4c0.5,0.6,1.3,1.1,2.6,1.3v1.6h-22.2v-1.6c1.2-0.4,2.1-0.8,2.6-1.3
				c0.5-0.6,0.8-1.3,0.8-2.4v-60.3c0-1.1-0.3-1.9-0.8-2.4c-0.5-0.6-1.3-1-2.6-1.3v-1.6h44.5c5.4,0,9.7,0.3,12.9,1
				c3.2,0.7,6,1.7,8.3,3.3c2.8,1.8,4.8,4.2,6.2,7.3c1.2,3,1.9,6.2,1.9,9.6c0,11.6-6.4,18.4-19.3,20.4l13.8,19.6
				c2.4,3.5,4.2,5.7,5.4,6.6c1.2,1,2.5,1.5,4.1,1.6v1.6H421v-1.6c1.7-0.3,2.7-0.9,2.7-1.9c0-0.6-0.8-2.1-2.4-4.5l-14.4-21H387.7z
				 M387.7,364.8h23.9c3.6,0,6.1-0.1,7.5-0.3c1.4-0.2,2.8-0.7,4-1.3c2.6-1.4,3.9-4,3.9-7.7c0-3.7-1.3-6.2-3.9-7.7
				c-1.2-0.7-2.6-1.2-3.9-1.3c-1.4-0.2-3.9-0.3-7.5-0.3h-23.9L387.7,364.8L387.7,364.8z"/>
			<path class="st4" d="M507.3,387.4H475l-4.8,10c-0.7,1.3-1,2.5-1,3.3c0,1.5,1.2,2.6,3.5,3.2v1.6h-23.5v-1.6
				c1.3-0.3,2.4-0.8,3.2-1.4c0.8-0.7,1.5-2,2.5-4l26.1-54.7c0.9-1.7,1.2-3.2,1.2-4.1c0-1.6-1-2.8-3-3.5v-1.6h25.2v1.6
				c-2,0.6-3.1,1.6-3.1,3.1c0,1,0.3,2.1,1,3.5l27.1,54.9c1.2,2.3,2.1,3.9,3,4.8c0.9,0.9,2,1.4,3.5,1.7v1.6h-26.2V404
				c2.3-0.4,3.5-1.4,3.5-3.3c0-0.8-0.4-1.8-1.1-3.3L507.3,387.4z M502.9,377.7l-11.5-25.4l-11.7,25.4H502.9z"/>
			<path class="st4" d="M545.3,400.1v-60.2c0-1.1-0.3-1.9-0.8-2.4c-0.5-0.6-1.3-1-2.6-1.3v-1.6h39.7c8.7,0,15.4,1,20,3
				c6.6,2.9,11.6,7.7,14.8,14.3c2.5,5.2,3.8,11.3,3.8,18.3c0,12.3-3.7,21.6-11.3,28.1c-3.2,2.7-6.8,4.6-11.1,5.8
				c-4.2,1.2-9.6,1.7-16.2,1.7h-39.7V404c1.2-0.4,2.1-0.8,2.6-1.3C545.1,402,545.3,401.1,545.3,400.1z M560.9,393.8h19.5
				c6.2,0,10.9-0.9,14-2.6c6.7-3.7,10.1-10.8,10.1-21.3c0-7.7-1.8-13.5-5.4-17.6c-2-2.2-4.4-3.8-7.3-4.8s-6.6-1.4-11.3-1.4H561
				L560.9,393.8L560.9,393.8z"/>
			<path class="st4" d="M650.4,374.3v19.5h45.8c1.1,0,1.8-0.3,2.4-0.8c0.6-0.5,1-1.3,1.3-2.6h1.6v18.4h-1.6
				c-0.4-1.2-0.8-2.1-1.3-2.6c-0.6-0.5-1.3-0.8-2.4-0.8h-64.7v-1.6c1.2-0.4,2.1-0.8,2.6-1.3c0.5-0.6,0.8-1.3,0.8-2.4v-60.2
				c0-1.1-0.3-1.9-0.8-2.4c-0.5-0.6-1.3-1-2.6-1.3v-1.6h63.3c1.1,0,1.8-0.3,2.4-0.8c0.6-0.5,1-1.3,1.3-2.6h1.6v18.4h-1.6
				c-0.4-1.2-0.8-2.1-1.3-2.6c-0.6-0.5-1.3-0.8-2.4-0.8h-44.5v16.9h28.8c1.1,0,1.8-0.3,2.4-0.8c0.6-0.5,1-1.3,1.3-2.6h1.6v18h-1.6
				c-0.4-1.2-0.8-2.1-1.3-2.6c-0.6-0.5-1.3-0.8-2.4-0.8L650.4,374.3L650.4,374.3z"/>
			<path class="st1" d="M742.2,372.4l-10.8,8.7v19c0,1.1,0.3,1.9,0.8,2.5c0.5,0.6,1.3,1.1,2.6,1.3v1.6h-22.2v-1.6
				c1.2-0.4,2.1-0.8,2.6-1.3c0.5-0.6,0.8-1.3,0.8-2.4v-60.3c0-1.1-0.3-1.8-0.8-2.4c-0.5-0.6-1.3-1-2.6-1.3v-1.6h22.2v1.6
				c-1.2,0.3-2.1,0.8-2.6,1.3s-0.8,1.3-0.8,2.4v24.9l29.3-23.9c1.3-1.2,2-2,2-2.7c0-1-1-1.7-3-2.1v-1.6h29.1v1.6
				c-1.2,0.3-2.1,0.5-2.6,0.9c-0.5,0.3-2,1.5-4.5,3.6l-4,3.4l-24.2,19.4l27.4,33c2.5,3.1,4.3,5,5.5,6c1.2,0.9,2.5,1.4,4.2,1.7v1.6
				H763v-1.6c1.8-0.4,2.8-1.1,2.8-2c0-0.5-0.9-1.7-2.5-3.8L742.2,372.4z"/>
			<path class="st1" d="M817.1,374.3v19.5h45.8c1.1,0,1.8-0.3,2.4-0.8c0.6-0.5,1-1.3,1.3-2.6h1.6v18.4h-1.6
				c-0.4-1.2-0.8-2.1-1.3-2.6c-0.6-0.5-1.3-0.8-2.4-0.8h-64.6v-1.6c1.2-0.4,2.1-0.8,2.6-1.3c0.5-0.6,0.8-1.3,0.8-2.4v-60.2
				c0-1.1-0.3-1.9-0.8-2.4c-0.5-0.6-1.3-1-2.6-1.3v-1.6h63.3c1.1,0,1.8-0.3,2.4-0.8c0.6-0.5,1-1.3,1.3-2.6h1.6v18.4h-1.6
				c-0.4-1.2-0.8-2.1-1.3-2.6s-1.3-0.8-2.4-0.8h-44.5v16.9H846c1.1,0,1.8-0.3,2.4-0.8c0.6-0.5,1-1.3,1.3-2.6h1.6v18h-1.6
				c-0.4-1.2-0.8-2.1-1.3-2.6c-0.6-0.5-1.3-0.8-2.4-0.8L817.1,374.3L817.1,374.3z"/>
			<path class="st1" d="M918.8,375.7v24.3c0,1.1,0.3,1.9,0.8,2.5c0.5,0.6,1.3,1,2.6,1.3v1.6h-22.3v-1.6c1.2-0.4,2.1-0.8,2.7-1.3
				c0.5-0.6,0.8-1.3,0.8-2.5v-24.3l-23.1-32.3c-2-2.8-3.6-4.6-4.7-5.6c-1.2-1-2.5-1.5-4-1.7v-1.6h28.1v1.6c-2.3,0.4-3.5,1.4-3.5,3.3
				c0,0.7,0.7,2,2.1,4.1l12.8,19l13.2-19c1.4-2,2.1-3.5,2.1-4.1c0-0.8-0.3-1.4-1-2s-1.4-1-2.6-1.2v-1.6h27.5v1.6
				c-1.5,0.2-2.9,0.8-4,1.7c-1.2,1-2.7,2.8-4.7,5.6L918.8,375.7z"/>
		</g>
	</g>
</g>
<g id="Shape_1">
	<g>
		<path class="st5" d="M970.4,334.8L970.4,334.8c1.3-0.5,2.4-1.6,2.4-3.3c0-1-0.4-1.9-1-2.4c-0.8-0.7-1.9-1.1-3.7-1.1
			c-1.1,0-2.3,0.1-3.1,0.3v12.5h1.6v-5.5h1.5c1.5,0.1,2.2,0.7,2.6,2.5c0.3,1.6,0.6,2.7,0.8,3h1.7c-0.2-0.5-0.5-1.7-1-3.5
			C971.9,336.1,971.3,335.2,970.4,334.8z M968.2,334.1h-1.7v-4.6c0.3-0.1,0.8-0.2,1.6-0.2c1.7,0,2.9,0.7,2.9,2.3
			C971.1,333.2,970,334.1,968.2,334.1z M978.4,328.8c-1-1.8-2.4-3.2-4.2-4.2c-1.8-1-3.7-1.5-5.6-1.5c-1.9,0-3.8,0.5-5.6,1.5
			c-1.8,1-3.2,2.4-4.2,4.2c-1,1.8-1.5,3.7-1.5,5.7c0,2,0.5,3.8,1.5,5.6c1,1.8,2.4,3.2,4.2,4.2c1.8,1,3.7,1.5,5.6,1.5
			s3.8-0.5,5.6-1.5c1.8-1,3.2-2.4,4.2-4.2c1-1.8,1.5-3.7,1.5-5.6C979.9,332.5,979.4,330.6,978.4,328.8z M976.7,339.2
			c-0.8,1.5-2,2.7-3.5,3.5c-1.5,0.8-3.1,1.3-4.7,1.3c-1.6,0-3.2-0.4-4.7-1.3c-1.5-0.8-2.7-2-3.5-3.5c-0.8-1.5-1.3-3.1-1.3-4.7
			c0-1.6,0.4-3.2,1.3-4.7c0.9-1.5,2-2.7,3.5-3.5c1.5-0.8,3.1-1.2,4.6-1.2c1.6,0,3.1,0.4,4.6,1.2c1.5,0.8,2.7,2,3.5,3.5
			c0.8,1.5,1.3,3.1,1.3,4.7C978,336.1,977.6,337.7,976.7,339.2z"/>
	</g>
</g>
</svg>
